PathFileType	4	(X/Y/Z)	c:/Users/goper/Files/vsCode/490R/osim_files/C15/C15_SSWS_03.trc
DataRate	CameraRate	NumFrames	NumMarkers	Units                	OrigDataRate	OrigDataStartFrame	OrigNumFrames
250.00	250.00	10	36	mm	250.0	2350	3133
                Frame#	Time	LPSIS			LASIS			LTH1			LTH2			LTH3			LTH4			LLFE			LMFE			LSH1			LSH2			LSH3			LSH4			LLMAL			LMMAL			LCAL			LMTP5			LTOE			LMTP1			RPSIS			RASIS			RTH1			RTH2			RTH3			RTH4			RLFE			RMFE			RSH1			RSH2			RSH3			RSH4			RLMAL			RMMAL			RCAL			RMTP1			RTOE			RMTP5		
		X1	Y1	Z1	X2	Y2	Z2	X3	Y3	Z3	X4	Y4	Z4	X5	Y5	Z5	X6	Y6	Z6	X7	Y7	Z7	X8	Y8	Z8	X9	Y9	Z9	X10	Y10	Z10	X11	Y11	Z11	X12	Y12	Z12	X13	Y13	Z13	X14	Y14	Z14	X15	Y15	Z15	X16	Y16	Z16	X17	Y17	Z17	X18	Y18	Z18	X19	Y19	Z19	X20	Y20	Z20	X21	Y21	Z21	X22	Y22	Z22	X23	Y23	Z23	X24	Y24	Z24	X25	Y25	Z25	X26	Y26	Z26	X27	Y27	Z27	X28	Y28	Z28	X29	Y29	Z29	X30	Y30	Z30	X31	Y31	Z31	X32	Y32	Z32	X33	Y33	Z33	X34	Y34	Z34	X35	Y35	Z35	X36	Y36	Z36

2350	9.39600	-2412.00342	1009.84589	285.22382	-2572.78003	984.99194	358.33014	-2448.17358	600.79065	424.24713	-2444.68237	554.73926	413.65341	-2500.10278	602.59412	424.11032	-2496.99585	557.15613	418.96375	-2445.94312	481.20706	403.06372	-2461.14307	450.58179	283.80304	-2332.81885	439.29590	408.09445	-2299.66162	406.74710	409.91318	-2372.77344	394.69043	418.86838	-2336.06665	366.71255	419.92563	-2147.24585	183.36459	362.04529	-2187.65356	186.35205	278.70126	-2086.45923	202.84271	314.20694	-2193.15967	56.43555	380.10864	-2255.14233	54.64571	322.74084	-2210.03638	52.91399	263.13470	-2421.52100	1015.41791	165.30441	-2581.36646	997.21210	110.54559	-2614.40918	636.97754	50.07922	-2628.60693	593.59576	60.70784	-2673.10034	653.11292	65.04568	-2678.67725	606.54144	67.81158	-2661.78223	506.05640	91.73171	-2647.61279	487.67783	206.64224	-2599.06543	390.06415	66.36146	-2604.80615	346.60547	63.90560	-2660.66089	390.33221	72.98732	-2657.75024	348.66690	68.18742	-2646.22681	90.77973	135.12529	-2679.67871	117.17352	219.82724	-2590.53540	66.91307	182.08418	-2795.85962	51.15696	218.94760	-2828.62134	75.07512	165.16060	-2767.92188	43.70056	101.55424
2351	9.40000	-2416.34863	1010.11255	284.27045	-2576.72900	985.20520	357.71298	-2454.93701	600.34381	424.22647	-2452.15698	554.17499	413.78595	-2507.26245	602.59631	424.41980	-2504.23413	556.98108	419.22223	-2453.88452	480.84714	403.41391	-2469.49463	450.01743	284.16379	-2338.95068	439.81900	407.42981	-2307.52246	408.43509	409.83240	-2379.39526	394.92221	418.29568	-2343.15186	367.99020	420.38214	-2152.46387	186.83418	362.39514	-2193.14746	189.16623	279.23657	-2092.67017	208.20425	314.03796	-2194.52393	58.43900	380.20151	-2256.72729	54.64744	323.06027	-2211.84766	55.04634	263.21545	-2425.73486	1016.02338	164.51001	-2586.18555	997.69061	110.06046	-2618.37061	637.40411	50.32969	-2629.73633	591.51263	63.95208	-2676.62964	652.81592	64.55081	-2681.91113	606.25043	67.35942	-2664.60913	505.92282	91.42010	-2649.97046	487.69046	206.27364	-2601.19385	390.37305	66.41097	-2606.78882	347.01050	63.93209	-2662.78149	390.21988	72.78397	-2659.44604	348.58957	68.00980	-2646.43335	90.80148	135.20143	-2679.93237	116.96859	219.95181	-2591.00024	66.85091	182.38858	-2796.62646	51.25063	219.50980	-2828.67944	74.71436	165.29219	-2767.96436	43.68864	101.54594
2352	9.40400	-2420.54639	1010.36005	283.20575	-2579.64526	985.17047	357.12369	-2461.67212	599.80334	424.10181	-2459.49365	553.55267	413.89645	-2513.62720	602.38544	424.41776	-2511.35767	556.82147	419.46930	-2461.99780	480.58548	403.73618	-2482.59912	447.74658	287.38693	-2349.17822	441.48981	407.74887	-2314.90454	410.36292	409.89874	-2386.96338	395.52927	418.80215	-2350.41821	369.20682	420.82343	-2157.94165	190.30942	362.75696	-2198.62939	191.78555	279.62646	-2098.92065	213.68826	314.38107	-2196.26929	60.67316	380.23456	-2258.41870	54.74483	323.32730	-2213.76587	57.29708	263.38947	-2430.33789	1016.77539	163.46660	-2590.86792	998.11224	109.52750	-2621.05249	637.15570	49.18148	-2632.84863	591.42676	63.57349	-2680.06519	652.57697	63.96273	-2685.07788	606.01318	66.87731	-2667.27026	505.82651	91.16605	-2652.45825	487.81805	206.06752	-2603.10303	390.64178	66.48166	-2608.36694	347.13037	64.13686	-2664.77002	390.08356	72.57697	-2661.10718	348.48721	67.81142	-2646.64868	90.82050	135.26277	-2680.18872	116.82337	220.09315	-2591.06299	66.91959	182.43608	-2796.70654	51.02685	219.64006	-2828.73120	74.39158	165.37071	-2767.97998	43.65695	101.53376
2353	9.40800	-2424.61377	1010.66144	282.17307	-2583.46777	985.32703	356.62479	-2468.48120	599.27600	423.99893	-2466.64136	552.83545	413.76770	-2520.40405	602.37036	424.47177	-2517.55176	556.26160	419.05057	-2470.13892	480.20267	404.00815	-2491.81055	447.25128	288.05978	-2357.64282	442.61484	407.83157	-2322.98999	411.85410	409.91846	-2394.83569	396.25931	419.23093	-2357.97217	370.38538	421.17560	-2163.60718	193.93500	363.08200	-2204.39990	194.53102	280.00674	-2105.75195	219.24188	314.85892	-2198.24072	63.07613	380.28387	-2260.21143	54.86084	323.55014	-2215.84717	59.62253	263.52396	-2434.86841	1017.09558	162.60358	-2595.58789	998.54041	109.03536	-2624.88525	637.65637	49.48790	-2635.80640	591.55994	63.14490	-2683.30200	652.24615	63.47081	-2688.17505	605.75714	66.45399	-2669.94336	505.74854	90.89889	-2654.88257	487.95200	205.89771	-2604.94678	390.92038	66.62424	-2609.96729	347.40775	64.16586	-2666.58765	389.95740	72.33348	-2662.63574	348.39978	67.68749	-2646.81421	90.84657	135.35788	-2680.39062	116.71870	220.19647	-2591.09473	67.00646	182.48929	-2796.80444	50.82594	219.77580	-2828.77100	74.08120	165.45723	-2768.01685	43.64778	101.53276
2354	9.41200	-2428.62793	1011.02875	281.10269	-2587.30273	985.70630	356.15323	-2475.33911	598.77777	423.86450	-2473.90479	552.24683	413.58209	-2527.22070	602.35126	424.65952	-2525.11914	556.69757	418.98224	-2478.35938	479.93683	404.21365	-2500.69409	446.84052	288.46545	-2366.37915	443.73520	408.03561	-2330.91528	413.49692	409.93085	-2402.80298	396.79218	419.56519	-2365.69922	371.46219	421.56885	-2169.56860	197.52808	363.40750	-2210.54761	197.18037	280.34958	-2112.26660	224.68471	315.02322	-2200.12622	65.42382	380.07651	-2262.17627	55.16634	323.73230	-2218.04102	62.03087	263.74857	-2439.33179	1017.73474	161.57693	-2600.33154	998.95258	108.59859	-2627.99097	637.69696	49.11881	-2640.84033	592.55841	59.02888	-2686.61426	652.02716	62.98833	-2691.73169	604.97791	66.50296	-2672.47632	505.64706	90.71704	-2657.14355	488.09622	205.77036	-2606.57715	391.14508	66.78594	-2610.84814	347.69058	64.04293	-2668.35132	389.80093	72.20269	-2664.08960	348.26871	67.61930	-2646.97559	90.84983	135.44833	-2679.88672	116.15108	220.02043	-2591.15796	67.11131	182.53589	-2796.16553	50.20844	219.51968	-2828.82300	73.78827	165.54817	-2768.06421	43.66516	101.53815
2355	9.41600	-2432.78540	1011.11511	280.16397	-2592.23242	986.34674	355.74396	-2482.15771	598.36371	423.66354	-2481.41748	551.79370	413.55759	-2534.00391	602.43567	424.76187	-2533.20923	556.81604	420.16913	-2486.65625	479.88803	404.48749	-2509.57837	446.56458	288.71942	-2375.13330	444.80771	408.20502	-2339.29370	414.94760	410.05719	-2411.06519	397.52023	419.87381	-2373.63452	372.59711	421.87427	-2175.67676	201.16258	363.65515	-2216.92896	199.92088	280.73178	-2119.47949	230.41429	315.16965	-2202.53662	68.30941	380.18027	-2264.20557	55.52729	323.88766	-2220.55762	64.42728	263.94180	-2443.90698	1018.07306	160.57857	-2604.91040	999.39160	108.13354	-2631.12964	637.81213	48.73271	-2643.83105	592.68732	58.67000	-2689.92969	651.86255	62.52772	-2694.65918	604.69824	66.10717	-2674.97778	505.51617	90.53269	-2659.32593	488.15564	205.62022	-2608.31348	391.41171	66.95547	-2611.74512	347.90646	63.91683	-2669.98828	389.63345	72.03416	-2665.47485	348.12643	67.48125	-2649.89941	92.19985	134.88951	-2680.16040	116.14064	220.12497	-2591.22339	67.21590	182.55171	-2796.99097	50.52517	220.01793	-2828.83911	73.52032	165.60635	-2768.07495	43.66449	101.54633
2356	9.42000	-2436.68774	1011.45898	279.06549	-2596.05542	986.64960	355.26889	-2489.02222	598.04102	423.51169	-2488.83765	551.48456	413.46713	-2540.82275	602.64111	424.92868	-2540.43750	556.96472	420.42194	-2496.72290	478.52942	402.57370	-2518.17603	446.38300	288.81033	-2383.94849	445.79651	408.40872	-2348.20776	416.14871	410.36954	-2419.44458	398.25220	420.15424	-2383.05908	373.07996	421.48123	-2182.10767	204.73146	363.93231	-2223.22607	202.42778	280.94287	-2127.08667	235.90334	315.61472	-2205.11646	71.26388	380.21158	-2266.39795	55.97962	324.01044	-2223.05054	66.90599	264.14972	-2448.68823	1018.87189	159.50311	-2609.46216	999.79388	107.71031	-2634.23657	637.93256	48.43029	-2651.51392	594.35925	57.34042	-2693.08521	651.59100	62.15607	-2696.37964	603.58936	66.86565	-2677.36670	505.39154	90.36121	-2661.54590	488.33548	205.46858	-2609.79736	391.64429	67.06782	-2614.54639	347.61624	64.40832	-2671.59326	389.51550	71.86446	-2666.72534	347.94498	67.46651	-2650.14087	92.32294	134.97897	-2680.40894	116.10233	220.21556	-2590.83545	67.50602	182.32140	-2797.05396	50.40458	220.12477	-2828.92505	73.30467	165.67790	-2768.08179	43.64639	101.53382
2357	9.42400	-2440.59814	1011.71082	278.04160	-2599.69214	987.06360	354.87778	-2495.79688	597.84583	423.33026	-2496.04785	551.22534	413.38022	-2547.57983	602.88336	425.05676	-2546.71191	556.78278	419.99118	-2503.31079	479.34827	404.41754	-2526.61426	446.32932	288.77640	-2392.97314	447.00415	408.61627	-2356.98853	417.55588	410.84735	-2427.85474	398.83752	420.44229	-2389.45386	375.11984	422.93222	-2188.75171	208.34186	364.16995	-2229.90332	205.11417	281.19501	-2135.15991	241.49742	315.97464	-2208.02661	74.42091	380.26562	-2268.73413	56.58582	324.15451	-2225.76245	69.48021	264.37057	-2452.87280	1019.49445	158.50177	-2614.02954	1000.20709	107.28966	-2637.15088	637.93878	48.14413	-2654.39160	594.47083	57.05057	-2696.19287	651.37805	61.81990	-2699.27930	603.38300	66.56561	-2679.73267	505.28064	90.22060	-2663.66113	488.47598	205.32094	-2611.32446	391.88339	67.32984	-2615.68848	348.04077	64.58810	-2673.08911	389.36380	71.77653	-2667.92310	347.88406	67.38182	-2647.45044	91.00419	135.71230	-2680.62158	116.07274	220.30516	-2590.88477	67.57822	182.35445	-2796.37231	49.94193	219.74646	-2828.99609	73.09946	165.73988	-2768.08398	43.62950	101.53905
2358	9.42800	-2444.80811	1011.78424	276.93216	-2603.40845	987.41791	354.53470	-2502.59619	597.71442	423.14758	-2503.38037	550.97662	413.29144	-2554.30103	603.22394	425.17294	-2554.99805	557.58032	420.92209	-2511.59912	479.53583	404.63107	-2535.01514	446.44336	288.68283	-2399.88916	447.55316	407.94107	-2365.64526	418.92950	411.03830	-2436.44385	399.56503	420.51620	-2397.80371	376.16202	423.20282	-2195.41919	211.86690	364.41763	-2236.52271	207.62425	281.37219	-2143.18164	247.00067	315.89728	-2210.99707	77.60213	380.22620	-2271.13867	57.17241	324.33221	-2228.65796	72.15421	264.59174	-2457.05518	1020.10541	157.61597	-2618.40942	1000.60010	106.83743	-2640.14893	638.04834	47.83672	-2657.11792	594.44434	56.79894	-2699.32959	651.27490	61.48468	-2702.02124	603.15405	66.30588	-2681.99219	505.17218	90.09157	-2665.86768	488.69937	205.17638	-2612.45898	392.20908	67.32397	-2617.43457	348.08502	65.28120	-2674.50879	389.25995	71.60695	-2669.20557	347.75909	67.31564	-2647.61206	91.07099	135.75299	-2680.77734	116.04185	220.34610	-2590.92676	67.64737	182.38835	-2797.17163	50.24934	220.26489	-2829.09644	72.89948	165.79814	-2768.07422	43.60101	101.51114
2359	9.43200	-2448.34863	1012.26184	276.04596	-2607.11597	987.79272	354.13998	-2509.91699	597.84991	424.15204	-2510.89062	550.95245	413.20459	-2561.03540	603.65375	425.37979	-2562.13940	557.98938	421.15103	-2519.99878	479.73120	404.80267	-2541.40747	447.04968	287.97174	-2408.83350	448.44833	408.06012	-2374.58960	420.17377	411.29327	-2446.30493	400.93530	422.26697	-2406.34668	377.14587	423.42480	-2202.28394	215.36914	364.61407	-2243.40454	210.26804	281.56366	-2151.51855	252.51089	316.13971	-2214.11108	80.92271	380.21933	-2273.63306	57.72734	324.47913	-2231.88110	74.91780	264.79230	-2461.00684	1020.59869	156.72433	-2622.83008	1001.03210	106.46936	-2643.05933	638.19348	47.55360	-2659.80542	594.51605	56.62819	-2702.29712	651.05945	61.17529	-2704.79199	602.99036	66.07500	-2684.15430	505.03394	89.93758	-2667.91650	488.86096	205.04327	-2614.10742	392.42123	67.60123	-2618.23779	348.52118	65.44092	-2675.98267	389.16333	71.53709	-2670.19897	347.66296	67.29711	-2647.69043	91.09071	135.82184	-2680.96802	116.04011	220.39786	-2591.28857	67.64164	182.57953	-2797.26367	50.18932	220.33064	-2829.19580	72.73158	165.83458	-2768.10815	43.59828	101.48418
